<?xml version="1.0" encoding="UTF-8"?>
<!DOCTYPE svg PUBLIC "-//W3C//DTD SVG 1.1//EN" "http://www.w3.org/Graphics/SVG/1.1/DTD/svg11.dtd">
<!-- Creator: CorelDRAW X7 -->
<svg xmlns="http://www.w3.org/2000/svg" xml:space="preserve" width="10in" height="6in" version="1.1" style="shape-rendering:geometricPrecision; text-rendering:geometricPrecision; image-rendering:optimizeQuality; fill-rule:evenodd; clip-rule:evenodd"
viewBox="0 0 10000 6000"
 xmlns:xlink="http://www.w3.org/1999/xlink">
 <defs>
  <style type="text/css">
   <![CDATA[
    .fil3 {fill:#A1A1A1}
    .fil4 {fill:#8B8B8C}
    .fil2 {fill:#474443}
    .fil1 {fill:#332C2B}
    .fil0 {fill:#332C2B}
    .fnt0 {font-weight:normal;font-size:347.445px;font-family:'Bahnschrift'}
   ]]>
  </style>
 </defs>
 <g id="Layer_x0020_1">
  <metadata id="CorelCorpID_0Corel-Layer"/>
  <path class="fil0" d="M3576 4084c14,49 23,44 48,94 28,53 10,49 47,96 -16,73 6,116 -32,207 -284,-98 -252,-194 -330,-289 6,-41 7,-44 -21,-79l-21 -220c15,-17 -27,-25 45,-2 23,22 101,66 138,95 50,38 79,77 126,98z"/>
  <path class="fil0" d="M3549 1175c-144,137 -141,171 -352,183l-117 -16 38 -119 111 -154c62,-10 39,-1 81,-39 52,-13 91,-32 150,-46l127 -26c46,-13 8,-1 34,-13l56 18 -128 212z"/>
  <path class="fil0" d="M2695 1677l-41 176c-58,42 -89,117 -155,150 -85,-99 -141,-249 -68,-426 41,-89 90,-213 156,-269 28,44 51,127 66,182 15,51 15,139 42,187z"/>
  <path class="fil0" d="M2191 2879c26,52 240,162 196,409l-61 17 -11 -16c-309,-78 -280,-262 -375,-360 5,-46 5,-6 -3,-48 -7,-40 -19,-37 -23,-109l136 48 141 59z"/>
  <path class="fil0" d="M2631 2292l-136 -11c50,-283 85,-245 240,-386 27,9 14,16 22,-11 90,-21 172,-64 271,-77 -39,110 -82,220 -153,311 -120,155 -127,93 -244,174z"/>
  <path class="fil0" d="M3637 4684c-35,9 -82,42 -132,57 -52,16 -93,14 -141,29l-296 -96 -112 -87c78,-49 224,-96 340,-104 180,-11 239,46 354,146l-13 55z"/>
  <path class="fil0" d="M2105 2385c77,72 143,83 216,184 66,89 73,145 69,277l-19 53 -145 -47c-98,-60 -146,-123 -186,-215 -39,-89 -50,-210 -84,-283 45,-30 7,-26 71,-8 2,1 71,36 78,39z"/>
  <path class="fil0" d="M2954 3259c-26,277 4,375 -244,506 -71,-92 -80,-205 -40,-349l105 -195c34,-15 2,6 39,-26 5,-4 26,-28 32,-34 29,-31 41,-44 66,-76l42 174z"/>
  <path class="fil0" d="M3241 4332c-39,112 -214,138 -342,107 -116,-29 -289,-121 -354,-200 155,-46 331,-118 541,-31 69,41 107,95 155,124z"/>
  <path class="fil0" d="M2487 2835l-44 -25c9,-99 -11,-115 28,-233 20,-36 31,-60 56,-91 44,-55 52,-38 78,-102 73,-10 122,-100 261,-134 -33,145 -30,251 -117,398 -90,153 -194,130 -262,187z"/>
  <path class="fil0" d="M3213 3828c-13,124 -22,148 -81,258l-44 59c-238,-129 -158,-446 -31,-709 91,92 113,227 156,392z"/>
  <path class="fil0" d="M2411 3982c-24,-40 -140,-169 -178,-190 90,-75 613,-33 641,291 -203,54 -275,12 -463,-101z"/>
  <path class="fil0" d="M3047 965c-3,61 -6,17 16,40l-11 230c-44,167 -136,270 -252,304 -135,-210 -5,-373 116,-567l119 -95 12 88z"/>
  <path class="fil0" d="M2802 2945l-68 226c-55,99 -175,194 -278,182 -1,-113 -26,-166 27,-302l90 -145c50,-19 62,-43 105,-78 50,-41 65,-47 106,-89l28 7 -10 199z"/>
  <path class="fil0" d="M2262 1868c110,119 215,273 173,471l-60 149 -48 -18c-76,-69 -136,-125 -156,-218 8,-26 15,-23 -10,-19l-1 -255 38 -176c43,32 30,18 64,66z"/>
  <path class="fil0" d="M2519 3475c24,81 62,110 64,236 -216,-21 -160,20 -364,-111 -30,-52 -82,-96 -119,-150 -36,-53 -52,-109 -80,-169l34 0 279 75c46,19 71,30 108,60 10,8 30,28 36,33 30,23 8,11 42,26z"/>
  <path class="fil0" d="M3069 1773c-78,-21 -134,11 -259,-34l-4 4c36,-114 92,-184 167,-235 82,-55 181,-58 236,-96l191 -3c23,34 86,-36 -46,122 -229,275 -190,142 -285,242z"/>
  <path class="fil0" d="M6384 4084c-14,49 -22,44 -48,94 -28,53 -10,49 -47,96 16,73 -5,116 32,207 285,-98 252,-194 331,-289 -7,-41 -8,-44 20,-79l21 -220c-15,-17 27,-25 -45,-2 -23,22 -101,66 -138,95 -50,38 -79,77 -126,98z"/>
  <path class="fil0" d="M6411 1175c145,137 141,171 353,183l117 -16 -39 -119 -111 -154c-62,-10 -39,-1 -81,-39 -52,-13 -90,-32 -149,-46l-128 -26c-46,-13 -8,-1 -34,-13l-56 18 128 212z"/>
  <path class="fil0" d="M7265 1677l41 176c58,42 89,117 155,150 85,-99 142,-249 68,-426 -41,-89 -90,-213 -156,-269 -28,44 -51,127 -66,182 -15,51 -15,139 -42,187z"/>
  <path class="fil0" d="M7769 2879c-26,52 -240,162 -196,409l61 17 11 -16c309,-78 280,-262 376,-360 -6,-46 -6,-6 2,-48 7,-40 19,-37 23,-109l-135 48 -142 59z"/>
  <path class="fil0" d="M7329 2292l136 -11c-49,-283 -85,-245 -240,-386 -27,9 -14,16 -22,-11 -90,-21 -172,-64 -271,-77 39,110 82,220 153,311 120,155 127,93 244,174z"/>
  <path class="fil0" d="M6323 4684c35,9 82,42 132,57 52,16 93,14 141,29l296 -96 112 -87c-78,-49 -224,-96 -340,-104 -180,-11 -239,46 -354,146l13 55z"/>
  <path class="fil0" d="M7855 2385c-77,72 -143,83 -216,184 -66,89 -73,145 -69,277l19 53 145 -47c99,-60 146,-123 187,-215 39,-89 49,-210 83,-283 -45,-30 -7,-26 -71,-8 -2,1 -71,36 -78,39z"/>
  <path class="fil0" d="M7006 3259c26,277 -4,375 244,506 72,-92 80,-205 40,-349l-105 -195c-34,-15 -2,6 -39,-26 -5,-4 -26,-28 -32,-34 -29,-31 -41,-44 -66,-76l-42 174z"/>
  <path class="fil0" d="M6719 4332c39,112 214,138 342,107 117,-29 289,-121 354,-200 -155,-46 -331,-118 -541,-31 -68,41 -107,95 -155,124z"/>
  <path class="fil0" d="M7473 2835l44 -25c-9,-99 11,-115 -28,-233 -20,-36 -31,-60 -56,-91 -44,-55 -51,-38 -77,-102 -74,-10 -123,-100 -262,-134 33,145 30,251 117,398 90,153 194,130 262,187z"/>
  <path class="fil0" d="M6747 3828c13,124 22,148 81,258l44 59c238,-129 158,-446 31,-709 -91,92 -113,227 -156,392z"/>
  <path class="fil0" d="M7549 3982c24,-40 140,-169 178,-190 -90,-75 -613,-33 -641,291 203,54 275,12 463,-101z"/>
  <path class="fil0" d="M6913 965c4,61 6,17 -16,40l11 230c45,167 136,270 252,304 135,-210 5,-373 -116,-567l-119 -95 -12 88z"/>
  <path class="fil0" d="M7158 2945l68 226c55,99 175,194 278,182 2,-113 27,-166 -27,-302l-90 -145c-50,-19 -61,-43 -105,-78 -50,-41 -64,-47 -105,-89l-29 7 10 199z"/>
  <path class="fil0" d="M7698 1868c-110,119 -215,273 -173,471l60 149 49 -18c75,-69 135,-125 155,-218 -8,-26 -15,-23 10,-19l1 -255 -38 -176c-42,32 -30,18 -64,66z"/>
  <path class="fil0" d="M7441 3475c-24,81 -62,110 -64,236 216,-21 160,20 365,-111 29,-52 81,-96 118,-150 36,-53 52,-109 80,-169l-34 0 -279 75c-46,19 -71,30 -108,60 -10,8 -30,28 -36,33 -30,23 -8,11 -42,26z"/>
  <path class="fil0" d="M6891 1773c79,-21 134,11 260,-34l3 4c-36,-114 -92,-184 -167,-235 -82,-55 -181,-58 -236,-96l-191 -3c-23,34 -85,-36 46,122 229,275 190,142 285,242z"/>
  <text x="2424" y="5366"  class="fil1 fnt0">Badan Nasional Sertifikasi Profesi</text>
  <text x="3374" y="5783"  class="fil1 fnt0">Junior Web Developer</text>
  <path class="fil2" d="M4869 3073c-30,7 -28,8 -69,8l0 26 207 0 0 -26c-48,0 -63,-7 -68,-52l-1 -380c33,9 44,33 67,54l405 356c36,28 30,47 81,48l0 -535c0,-59 20,-86 78,-87l-216 0c41,0 39,2 69,9 3,35 9,47 9,95 0,37 0,75 0,112 0,75 0,150 0,225 -32,-9 -46,-34 -69,-52 -59,-45 -441,-406 -467,-406l-26 0 0 605z"/>
  <path class="fil2" d="M4549 3064l-121 -8 0 -277c35,-1 92,-30 189,36 103,69 75,249 -68,249zm-69 -320c-70,0 -52,19 -52,-242 70,0 124,-11 155,36 50,76 36,206 -103,206zm-207 -250l52 0c0,87 -4,328 6,400 9,65 -2,119 -6,170 -14,7 -26,7 -27,8 -25,10 -15,-6 -25,18 34,19 209,9 259,9 98,0 205,-24 224,-131 20,-114 -19,-200 -120,-224 9,-13 144,-127 15,-231 -82,-66 -220,-45 -352,-45 -21,0 -26,6 -26,26z"/>
  <path class="fil2" d="M6045 2485c39,1 42,1 52,34 14,50 14,470 0,520 -10,33 -13,33 -52,34l0 26 208 1c45,-1 42,7 51,-27 -55,0 -87,-7 -87,-61l0 -501c96,0 205,0 197,145 -7,122 -124,137 -171,114 1,51 13,44 87,44 257,0 245,-329 26,-346 -92,-7 -216,0 -311,0l0 17z"/>
  <path class="fil2" d="M5638 2597c0,106 32,116 93,167 79,68 184,108 184,205 0,69 -91,104 -164,104 -85,0 -104,-44 -104,-130l-26 0 0 156 216 0c64,0 156,-92 156,-156 0,-108 -4,-105 -88,-172 -46,-37 -273,-166 -172,-252 63,-53 96,-32 153,-5 34,17 46,28 55,66l26 0 0 -121 -164 0c-73,0 -165,70 -165,138z"/>
  <path class="fil3" d="M4014 2494c-11,29 -182,245 -217,262 -47,-28 -73,-51 -117,-84 -42,-30 -87,-54 -116,-92 -54,-12 -66,-8 -103,44 -58,82 42,56 103,127 43,8 74,33 112,54l117 63c36,-15 51,-42 73,-72 27,-35 41,-52 67,-88 22,-31 108,-162 132,-177 16,-36 26,-45 49,-75l96 -146c11,-17 50,-62 25,-71 -18,-7 -28,17 -57,56l-164 199z"/>
  <path class="fil2" d="M3773 2552c89,-33 114,96 42,123 -76,29 -129,-90 -42,-123zm-209 28c29,38 74,62 116,92 44,33 70,56 117,84 35,-17 206,-233 217,-262l-450 0 0 86z"/>
  <path class="fil2" d="M3793 2868l-13 7c36,-5 102,11 135,20 54,16 72,31 73,91l77 0 0 -455c-24,15 -110,146 -132,177 -26,36 -40,53 -67,88 -22,30 -37,57 -73,72z"/>
  <path class="fil4" d="M3679 2986c-21,24 -25,44 -42,73 -40,69 -55,107 -114,162 -28,26 -18,5 -28,33 144,-12 207,-192 262,-268 22,-29 30,-43 84,-41 49,1 63,13 84,41 39,53 -63,106 -7,147 13,-45 62,-83 70,-147 -1,-60 -19,-75 -73,-91 -33,-9 -99,-25 -135,-20 -65,12 -80,51 -101,111z"/>
  <path class="fil2" d="M3679 2986c21,-60 36,-99 101,-111l13 -7 -117 -63c-38,-21 -69,-46 -112,-54l0 235 115 0z"/>
  <path class="fil4" d="M3773 2552c-87,33 -34,152 42,123 72,-27 47,-156 -42,-123z"/>
  <path class="fil2" d="M3757 2986l168 0c-21,-28 -35,-40 -84,-41 -54,-2 -62,12 -84,41z"/>
 </g>
</svg>
