<?xml version="1.0" encoding="UTF-8"?>
<!DOCTYPE svg PUBLIC "-//W3C//DTD SVG 1.1//EN" "http://www.w3.org/Graphics/SVG/1.1/DTD/svg11.dtd">
<!-- Creator: CorelDRAW X7 -->
<svg xmlns="http://www.w3.org/2000/svg" xml:space="preserve" width="10in" height="6in" version="1.1" style="shape-rendering:geometricPrecision; text-rendering:geometricPrecision; image-rendering:optimizeQuality; fill-rule:evenodd; clip-rule:evenodd"
viewBox="0 0 10000 6000"
 xmlns:xlink="http://www.w3.org/1999/xlink">
 <defs>
  <style type="text/css">
   <![CDATA[
    .str0 {stroke:white;stroke-width:3}
    .fil2 {fill:#474443}
    .fil1 {fill:#332C2B}
    .fil0 {fill:#332C2B}
    .fil3 {fill:white}
    .fnt0 {font-weight:normal;font-size:347.445px;font-family:'Bahnschrift'}
   ]]>
  </style>
 </defs>
 <g id="Layer_x0020_1">
  <metadata id="CorelCorpID_0Corel-Layer"/>
  <path class="fil0" d="M3576 4084c14,49 23,44 48,94 28,53 10,49 47,96 -16,73 6,116 -32,207 -284,-98 -252,-194 -330,-289 6,-41 7,-44 -21,-79l-21 -220c15,-17 -27,-25 45,-2 23,22 101,66 138,95 50,38 79,77 126,98z"/>
  <path class="fil0" d="M3549 1175c-144,137 -141,171 -352,183l-117 -16 38 -119 111 -154c62,-10 39,-1 81,-39 52,-13 91,-32 150,-46l127 -26c46,-13 8,-1 34,-13l56 18 -128 212z"/>
  <path class="fil0" d="M2695 1677l-41 176c-58,42 -89,117 -155,150 -85,-99 -141,-249 -68,-426 41,-89 90,-213 156,-269 28,44 51,127 66,182 15,51 15,139 42,187z"/>
  <path class="fil0" d="M2191 2879c26,52 240,162 196,409l-61 17 -11 -16c-309,-78 -280,-262 -375,-360 5,-46 5,-6 -3,-48 -7,-40 -19,-37 -23,-109l136 48 141 59z"/>
  <path class="fil0" d="M2631 2292l-136 -11c50,-283 85,-245 240,-386 27,9 14,16 22,-11 90,-21 172,-64 271,-77 -39,110 -82,220 -153,311 -120,155 -127,93 -244,174z"/>
  <path class="fil0" d="M3637 4684c-35,9 -82,42 -132,57 -52,16 -93,14 -141,29l-296 -96 -112 -87c78,-49 224,-96 340,-104 180,-11 239,46 354,146l-13 55z"/>
  <path class="fil0" d="M2105 2385c77,72 143,83 216,184 66,89 73,145 69,277l-19 53 -145 -47c-98,-60 -146,-123 -186,-215 -39,-89 -50,-210 -84,-283 45,-30 7,-26 71,-8 2,1 71,36 78,39z"/>
  <path class="fil0" d="M2954 3259c-26,277 4,375 -244,506 -71,-92 -80,-205 -40,-349l105 -195c34,-15 2,6 39,-26 5,-4 26,-28 32,-34 29,-31 41,-44 66,-76l42 174z"/>
  <path class="fil0" d="M3241 4332c-39,112 -214,138 -342,107 -116,-29 -289,-121 -354,-200 155,-46 331,-118 541,-31 69,41 107,95 155,124z"/>
  <path class="fil0" d="M2487 2835l-44 -25c9,-99 -11,-115 28,-233 20,-36 31,-60 56,-91 44,-55 52,-38 78,-102 73,-10 122,-100 261,-134 -33,145 -30,251 -117,398 -90,153 -194,130 -262,187z"/>
  <path class="fil0" d="M3213 3828c-13,124 -22,148 -81,258l-44 59c-238,-129 -158,-446 -31,-709 91,92 113,227 156,392z"/>
  <path class="fil0" d="M2411 3982c-24,-40 -140,-169 -178,-190 90,-75 613,-33 641,291 -203,54 -275,12 -463,-101z"/>
  <path class="fil0" d="M3047 965c-3,61 -6,17 16,40l-11 230c-44,167 -136,270 -252,304 -135,-210 -5,-373 116,-567l119 -95 12 88z"/>
  <path class="fil0" d="M2802 2945l-68 226c-55,99 -175,194 -278,182 -1,-113 -26,-166 27,-302l90 -145c50,-19 62,-43 105,-78 50,-41 65,-47 106,-89l28 7 -10 199z"/>
  <path class="fil0" d="M2262 1868c110,119 215,273 173,471l-60 149 -48 -18c-76,-69 -136,-125 -156,-218 8,-26 15,-23 -10,-19l-1 -255 38 -176c43,32 30,18 64,66z"/>
  <path class="fil0" d="M2519 3475c24,81 62,110 64,236 -216,-21 -160,20 -364,-111 -30,-52 -82,-96 -119,-150 -36,-53 -52,-109 -80,-169l34 0 279 75c46,19 71,30 108,60 10,8 30,28 36,33 30,23 8,11 42,26z"/>
  <path class="fil0" d="M3069 1773c-78,-21 -134,11 -259,-34l-4 4c36,-114 92,-184 167,-235 82,-55 181,-58 236,-96l191 -3c23,34 86,-36 -46,122 -229,275 -190,142 -285,242z"/>
  <path class="fil0" d="M6384 4084c-14,49 -22,44 -48,94 -28,53 -10,49 -47,96 16,73 -5,116 32,207 285,-98 252,-194 331,-289 -7,-41 -8,-44 20,-79l21 -220c-15,-17 27,-25 -45,-2 -23,22 -101,66 -138,95 -50,38 -79,77 -126,98z"/>
  <path class="fil0" d="M6411 1175c145,137 141,171 353,183l117 -16 -39 -119 -111 -154c-62,-10 -39,-1 -81,-39 -52,-13 -90,-32 -149,-46l-128 -26c-46,-13 -8,-1 -34,-13l-56 18 128 212z"/>
  <path class="fil0" d="M7265 1677l41 176c58,42 89,117 155,150 85,-99 142,-249 68,-426 -41,-89 -90,-213 -156,-269 -28,44 -51,127 -66,182 -15,51 -15,139 -42,187z"/>
  <path class="fil0" d="M7769 2879c-26,52 -240,162 -196,409l61 17 11 -16c309,-78 280,-262 376,-360 -6,-46 -6,-6 2,-48 7,-40 19,-37 23,-109l-135 48 -142 59z"/>
  <path class="fil0" d="M7329 2292l136 -11c-49,-283 -85,-245 -240,-386 -27,9 -14,16 -22,-11 -90,-21 -172,-64 -271,-77 39,110 82,220 153,311 120,155 127,93 244,174z"/>
  <path class="fil0" d="M6323 4684c35,9 82,42 132,57 52,16 93,14 141,29l296 -96 112 -87c-78,-49 -224,-96 -340,-104 -180,-11 -239,46 -354,146l13 55z"/>
  <path class="fil0" d="M7855 2385c-77,72 -143,83 -216,184 -66,89 -73,145 -69,277l19 53 145 -47c99,-60 146,-123 187,-215 39,-89 49,-210 83,-283 -45,-30 -7,-26 -71,-8 -2,1 -71,36 -78,39z"/>
  <path class="fil0" d="M7006 3259c26,277 -4,375 244,506 72,-92 80,-205 40,-349l-105 -195c-34,-15 -2,6 -39,-26 -5,-4 -26,-28 -32,-34 -29,-31 -41,-44 -66,-76l-42 174z"/>
  <path class="fil0" d="M6719 4332c39,112 214,138 342,107 117,-29 289,-121 354,-200 -155,-46 -331,-118 -541,-31 -68,41 -107,95 -155,124z"/>
  <path class="fil0" d="M7473 2835l44 -25c-9,-99 11,-115 -28,-233 -20,-36 -31,-60 -56,-91 -44,-55 -51,-38 -77,-102 -74,-10 -123,-100 -262,-134 33,145 30,251 117,398 90,153 194,130 262,187z"/>
  <path class="fil0" d="M6747 3828c13,124 22,148 81,258l44 59c238,-129 158,-446 31,-709 -91,92 -113,227 -156,392z"/>
  <path class="fil0" d="M7549 3982c24,-40 140,-169 178,-190 -90,-75 -613,-33 -641,291 203,54 275,12 463,-101z"/>
  <path class="fil0" d="M6913 965c4,61 6,17 -16,40l11 230c45,167 136,270 252,304 135,-210 5,-373 -116,-567l-119 -95 -12 88z"/>
  <path class="fil0" d="M7158 2945l68 226c55,99 175,194 278,182 2,-113 27,-166 -27,-302l-90 -145c-50,-19 -61,-43 -105,-78 -50,-41 -64,-47 -105,-89l-29 7 10 199z"/>
  <path class="fil0" d="M7698 1868c-110,119 -215,273 -173,471l60 149 49 -18c75,-69 135,-125 155,-218 -8,-26 -15,-23 10,-19l1 -255 -38 -176c-42,32 -30,18 -64,66z"/>
  <path class="fil0" d="M7441 3475c-24,81 -62,110 -64,236 216,-21 160,20 365,-111 29,-52 81,-96 118,-150 36,-53 52,-109 80,-169l-34 0 -279 75c-46,19 -71,30 -108,60 -10,8 -30,28 -36,33 -30,23 -8,11 -42,26z"/>
  <path class="fil0" d="M6891 1773c79,-21 134,11 260,-34l3 4c-36,-114 -92,-184 -167,-235 -82,-55 -181,-58 -236,-96l-191 -3c-23,34 -85,-36 46,122 229,275 190,142 285,242z"/>
  <text x="4411" y="5366"  class="fil1 fnt0">Dicoding</text>
  <text x="2864" y="5783"  class="fil1 fnt0">Javascript Esential Learning</text>
  <g id="_2969281935344">
   <path class="fil2" d="M6554 3003c-54,26 -54,46 -158,43 -152,-4 -279,-194 -176,-352 91,-140 301,-144 388,3 37,63 35,85 33,169 -4,175 30,228 -87,314 -88,65 -209,59 -300,-15 -15,-12 -97,-91 -51,-126 25,-19 52,-11 67,7 9,12 10,20 18,31 52,72 175,91 245,8 23,-28 24,-38 21,-82zm106 229l0 -818 -494 0 0 818 494 0z"/>
   <path class="fil3" d="M6379 2679c86,-18 157,38 172,102 45,193 -235,244 -276,71 -20,-85 39,-158 104,-173zm175 324c3,44 2,54 -21,82 -70,83 -193,64 -245,-8 -8,-11 -9,-19 -18,-31 -15,-18 -42,-26 -67,-7 -46,35 36,114 51,126 91,74 212,80 300,15 117,-86 83,-139 87,-314 2,-84 4,-106 -33,-169 -87,-147 -297,-143 -388,-3 -103,158 24,348 176,352 104,3 104,-17 158,-43z"/>
   <path class="fil2" d="M5217 2673c47,0 75,9 108,40 99,95 16,244 -88,244 -89,0 -152,-53 -154,-140 -2,-70 61,-144 134,-144zm152 -49c-12,-6 -17,-11 -28,-17 -78,-48 -203,-34 -275,38 -23,24 -35,35 -51,65 -98,197 106,408 302,323 54,-24 88,-59 116,-107 11,-18 26,-57 26,-84l0 -391c0,-37 -63,-63 -87,-13 -7,14 -3,162 -3,186z"/>
   <path class="fil2" d="M3630 2673c51,0 81,5 119,42 96,95 12,242 -90,242 -30,0 -47,1 -73,-13 -14,-8 -30,-19 -41,-29 -93,-87 -11,-242 85,-242zm161 -49c-21,-11 -34,-22 -60,-31 -156,-59 -318,70 -318,212 0,255 312,340 442,121 11,-18 26,-57 26,-84l0 -391c0,-33 -60,-66 -88,-14 -8,15 -2,161 -2,187z"/>
   <path class="fil2" d="M4757 2957c-136,0 -188,-148 -104,-236 82,-85 235,-27 235,100 0,70 -61,136 -131,136zm-239 -148c0,44 5,72 21,107 78,176 339,180 422,3 70,-150 -38,-332 -213,-332 -120,0 -230,103 -230,222z"/>
   <path class="fil2" d="M5702 2649l0 345c0,44 21,53 53,53 46,0 41,-48 41,-94 0,-101 -15,-180 38,-234 89,-90 224,-24 230,94 1,34 -3,185 1,204 10,47 89,33 89,1l0 -230c0,-93 -103,-201 -205,-201 -88,0 -77,-3 -153,37 -16,-35 -17,-37 -61,-37 -22,0 -33,36 -33,62z"/>
   <path class="fil2" d="M4091 2817c0,56 22,101 44,137 18,28 71,68 104,80 132,50 259,-36 259,-73 0,-54 -34,-49 -62,-49 -9,0 -87,77 -171,31 -140,-75 -87,-266 64,-266 26,0 51,9 67,20 12,9 38,30 56,30 32,0 75,-45 20,-90 -72,-58 -154,-69 -241,-33 -23,9 -55,31 -71,48 -8,7 -6,7 -13,16 -6,7 -8,8 -14,15 -25,33 -42,87 -42,134z"/>
   <path class="fil2 str0" d="M6379 2679c-65,15 -124,88 -104,173 41,173 321,122 276,-71 -15,-64 -86,-120 -172,-102z"/>
   <path class="fil2" d="M3951 2644l0 350c0,70 66,57 83,42 9,-8 12,-19 12,-34l0 -378c0,-46 -95,-73 -95,20z"/>
   <path class="fil2" d="M5529 2649l0 337c0,87 71,61 83,50 9,-8 12,-19 12,-34l0 -378c0,-45 -95,-75 -95,25z"/>
   <path class="fil2" d="M3992 2566c62,0 64,-63 40,-80 -44,-31 -75,-1 -79,28 -3,22 17,52 39,52z"/>
   <path class="fil2" d="M5570 2566c62,0 65,-63 40,-80 -42,-30 -74,-4 -79,29 -2,21 17,51 39,51z"/>
  </g>
 </g>
</svg>
