<?xml version="1.0" encoding="UTF-8"?>
<!DOCTYPE svg PUBLIC "-//W3C//DTD SVG 1.1//EN" "http://www.w3.org/Graphics/SVG/1.1/DTD/svg11.dtd">
<!-- Creator: CorelDRAW X7 -->
<svg xmlns="http://www.w3.org/2000/svg" xml:space="preserve" width="10in" height="6in" version="1.1" style="shape-rendering:geometricPrecision; text-rendering:geometricPrecision; image-rendering:optimizeQuality; fill-rule:evenodd; clip-rule:evenodd"
viewBox="0 0 10000 6000"
 xmlns:xlink="http://www.w3.org/1999/xlink">
 <defs>
  <style type="text/css">
   <![CDATA[
    .fil1 {fill:#474443}
    .fil2 {fill:#332C2B}
    .fil0 {fill:#332C2B}
    .fnt0 {font-weight:normal;font-size:347.445px;font-family:'Bahnschrift'}
   ]]>
  </style>
 </defs>
 <g id="Layer_x0020_1">
  <metadata id="CorelCorpID_0Corel-Layer"/>
  <path class="fil0" d="M3576 4084c14,49 23,44 48,94 28,53 10,49 47,96 -16,73 6,116 -32,207 -284,-98 -252,-194 -330,-289 6,-41 7,-44 -21,-79l-21 -220c15,-17 -27,-25 45,-2 23,22 101,66 138,95 50,38 79,77 126,98z"/>
  <path class="fil0" d="M3549 1175c-144,137 -141,171 -352,183l-117 -16 38 -119 111 -154c62,-10 39,-1 81,-39 52,-13 91,-32 150,-46l127 -26c46,-13 8,-1 34,-13l56 18 -128 212z"/>
  <path class="fil0" d="M2695 1677l-41 176c-58,42 -89,117 -155,150 -85,-99 -141,-249 -68,-426 41,-89 90,-213 156,-269 28,44 51,127 66,182 15,51 15,139 42,187z"/>
  <path class="fil0" d="M2191 2879c26,52 240,162 196,409l-61 17 -11 -16c-309,-78 -280,-262 -375,-360 5,-46 5,-6 -3,-48 -7,-40 -19,-37 -23,-109l136 48 141 59z"/>
  <path class="fil0" d="M2631 2292l-136 -11c50,-283 85,-245 240,-386 27,9 14,16 22,-11 90,-21 172,-64 271,-77 -39,110 -82,220 -153,311 -120,155 -127,93 -244,174z"/>
  <path class="fil0" d="M3637 4684c-35,9 -82,42 -132,57 -52,16 -93,14 -141,29l-296 -96 -112 -87c78,-49 224,-96 340,-104 180,-11 239,46 354,146l-13 55z"/>
  <path class="fil0" d="M2105 2385c77,72 143,83 216,184 66,89 73,145 69,277l-19 53 -145 -47c-98,-60 -146,-123 -186,-215 -39,-89 -50,-210 -84,-283 45,-30 7,-26 71,-8 2,1 71,36 78,39z"/>
  <path class="fil0" d="M2954 3259c-26,277 4,375 -244,506 -71,-92 -80,-205 -40,-349l105 -195c34,-15 2,6 39,-26 5,-4 26,-28 32,-34 29,-31 41,-44 66,-76l42 174z"/>
  <path class="fil0" d="M3241 4332c-39,112 -214,138 -342,107 -116,-29 -289,-121 -354,-200 155,-46 331,-118 541,-31 69,41 107,95 155,124z"/>
  <path class="fil0" d="M2487 2835l-44 -25c9,-99 -11,-115 28,-233 20,-36 31,-60 56,-91 44,-55 52,-38 78,-102 73,-10 122,-100 261,-134 -33,145 -30,251 -117,398 -90,153 -194,130 -262,187z"/>
  <path class="fil0" d="M3213 3828c-13,124 -22,148 -81,258l-44 59c-238,-129 -158,-446 -31,-709 91,92 113,227 156,392z"/>
  <path class="fil0" d="M2411 3982c-24,-40 -140,-169 -178,-190 90,-75 613,-33 641,291 -203,54 -275,12 -463,-101z"/>
  <path class="fil0" d="M3047 965c-3,61 -6,17 16,40l-11 230c-44,167 -136,270 -252,304 -135,-210 -5,-373 116,-567l119 -95 12 88z"/>
  <path class="fil0" d="M2802 2945l-68 226c-55,99 -175,194 -278,182 -1,-113 -26,-166 27,-302l90 -145c50,-19 62,-43 105,-78 50,-41 65,-47 106,-89l28 7 -10 199z"/>
  <path class="fil0" d="M2262 1868c110,119 215,273 173,471l-60 149 -48 -18c-76,-69 -136,-125 -156,-218 8,-26 15,-23 -10,-19l-1 -255 38 -176c43,32 30,18 64,66z"/>
  <path class="fil0" d="M2519 3475c24,81 62,110 64,236 -216,-21 -160,20 -364,-111 -30,-52 -82,-96 -119,-150 -36,-53 -52,-109 -80,-169l34 0 279 75c46,19 71,30 108,60 10,8 30,28 36,33 30,23 8,11 42,26z"/>
  <path class="fil0" d="M3069 1773c-78,-21 -134,11 -259,-34l-4 4c36,-114 92,-184 167,-235 82,-55 181,-58 236,-96l191 -3c23,34 86,-36 -46,122 -229,275 -190,142 -285,242z"/>
  <path class="fil0" d="M6384 4084c-14,49 -22,44 -48,94 -28,53 -10,49 -47,96 16,73 -5,116 32,207 285,-98 252,-194 331,-289 -7,-41 -8,-44 20,-79l21 -220c-15,-17 27,-25 -45,-2 -23,22 -101,66 -138,95 -50,38 -79,77 -126,98z"/>
  <path class="fil0" d="M6411 1175c145,137 141,171 353,183l117 -16 -39 -119 -111 -154c-62,-10 -39,-1 -81,-39 -52,-13 -90,-32 -149,-46l-128 -26c-46,-13 -8,-1 -34,-13l-56 18 128 212z"/>
  <path class="fil0" d="M7265 1677l41 176c58,42 89,117 155,150 85,-99 142,-249 68,-426 -41,-89 -90,-213 -156,-269 -28,44 -51,127 -66,182 -15,51 -15,139 -42,187z"/>
  <path class="fil0" d="M7769 2879c-26,52 -240,162 -196,409l61 17 11 -16c309,-78 280,-262 376,-360 -6,-46 -6,-6 2,-48 7,-40 19,-37 23,-109l-135 48 -142 59z"/>
  <path class="fil0" d="M7329 2292l136 -11c-49,-283 -85,-245 -240,-386 -27,9 -14,16 -22,-11 -90,-21 -172,-64 -271,-77 39,110 82,220 153,311 120,155 127,93 244,174z"/>
  <path class="fil0" d="M6323 4684c35,9 82,42 132,57 52,16 93,14 141,29l296 -96 112 -87c-78,-49 -224,-96 -340,-104 -180,-11 -239,46 -354,146l13 55z"/>
  <path class="fil0" d="M7855 2385c-77,72 -143,83 -216,184 -66,89 -73,145 -69,277l19 53 145 -47c99,-60 146,-123 187,-215 39,-89 49,-210 83,-283 -45,-30 -7,-26 -71,-8 -2,1 -71,36 -78,39z"/>
  <path class="fil0" d="M7006 3259c26,277 -4,375 244,506 72,-92 80,-205 40,-349l-105 -195c-34,-15 -2,6 -39,-26 -5,-4 -26,-28 -32,-34 -29,-31 -41,-44 -66,-76l-42 174z"/>
  <path class="fil0" d="M6719 4332c39,112 214,138 342,107 117,-29 289,-121 354,-200 -155,-46 -331,-118 -541,-31 -68,41 -107,95 -155,124z"/>
  <path class="fil0" d="M7473 2835l44 -25c-9,-99 11,-115 -28,-233 -20,-36 -31,-60 -56,-91 -44,-55 -51,-38 -77,-102 -74,-10 -123,-100 -262,-134 33,145 30,251 117,398 90,153 194,130 262,187z"/>
  <path class="fil0" d="M6747 3828c13,124 22,148 81,258l44 59c238,-129 158,-446 31,-709 -91,92 -113,227 -156,392z"/>
  <path class="fil0" d="M7549 3982c24,-40 140,-169 178,-190 -90,-75 -613,-33 -641,291 203,54 275,12 463,-101z"/>
  <path class="fil0" d="M6913 965c4,61 6,17 -16,40l11 230c45,167 136,270 252,304 135,-210 5,-373 -116,-567l-119 -95 -12 88z"/>
  <path class="fil0" d="M7158 2945l68 226c55,99 175,194 278,182 2,-113 27,-166 -27,-302l-90 -145c-50,-19 -61,-43 -105,-78 -50,-41 -64,-47 -105,-89l-29 7 10 199z"/>
  <path class="fil0" d="M7698 1868c-110,119 -215,273 -173,471l60 149 49 -18c75,-69 135,-125 155,-218 -8,-26 -15,-23 10,-19l1 -255 -38 -176c-42,32 -30,18 -64,66z"/>
  <path class="fil0" d="M7441 3475c-24,81 -62,110 -64,236 216,-21 160,20 365,-111 29,-52 81,-96 118,-150 36,-53 52,-109 80,-169l-34 0 -279 75c-46,19 -71,30 -108,60 -10,8 -30,28 -36,33 -30,23 -8,11 -42,26z"/>
  <path class="fil0" d="M6891 1773c79,-21 134,11 260,-34l3 4c-36,-114 -92,-184 -167,-235 -82,-55 -181,-58 -236,-96l-191 -3c-23,34 -85,-36 46,122 229,275 190,142 285,242z"/>
  <path class="fil1" d="M4874 2108c-111,12 -163,29 -243,81 -62,41 -118,102 -155,171 -130,237 -35,537 198,658 88,46 151,57 269,57 115,0 211,19 252,-73 20,-47 10,-91 -15,-125 -77,-106 -263,2 -402,-84 -158,-99 -147,-325 11,-410 45,-24 77,-29 136,-29 64,0 452,4 482,-2 85,-20 134,-121 71,-200 -27,-34 -60,-46 -118,-46 -54,1 -108,0 -163,0 -58,0 -285,-2 -323,2z"/>
  <path class="fil1" d="M4958 2802c68,9 144,-18 207,27 24,17 34,34 40,38l0 -487 -247 -1 0 423z"/>
  <path class="fil1" d="M4959 2082l246 0 0 -236c-2,-63 -55,-118 -123,-118 -66,0 -121,52 -124,115l1 239z"/>
  <path class="fil1" d="M4384 3485c94,-27 120,124 38,148 -93,27 -125,-124 -38,-148zm87 -23c-86,-86 -208,-22 -206,99 3,131 138,173 206,93 15,95 -45,122 -96,101 -25,-10 -20,-16 -34,-33l-63 0c-1,25 17,52 29,63 48,44 154,51 205,-9 33,-41 27,-101 27,-162 0,-59 2,-126 -1,-186l-66 0 -1 34z"/>
  <path class="fil1" d="M3929 3486c91,-31 128,118 42,147 -89,29 -128,-118 -42,-147zm90 -27c-10,-4 -66,-64 -142,-22 -90,51 -81,203 3,244 22,11 49,17 79,10 39,-8 43,-26 60,-34l1 33 67 0 -2 -350 -66 0 0 119z"/>
  <path class="fil1" d="M5104 3582c-23,92 -157,60 -133,-47 20,-88 160,-61 133,47zm2 -121c-19,-13 -27,-28 -60,-35 -30,-6 -59,0 -82,12 -117,64 -63,287 83,253 33,-7 39,-21 59,-34l1 33 67 0 0 -262 -67 1 -1 32z"/>
  <path class="fil1" d="M5422 3534c1,-74 125,-73 122,0l-122 0zm184 74c-13,-1 -60,-4 -69,1 -12,6 -11,24 -41,29 -43,8 -73,-22 -75,-59l191 -1c21,-192 -226,-202 -256,-53 -39,197 222,217 250,83z"/>
  <path class="fil1" d="M5728 3689c1,-45 0,-89 0,-134 0,-44 14,-74 59,-74 45,0 58,30 58,74 0,45 0,90 0,135l67 -1c0,-109 27,-259 -98,-265 -54,-3 -69,24 -86,33l0 -29 -66 0 0 262 66 -1z"/>
  <path class="fil1" d="M4714 3482l31 1c1,152 -26,216 125,207l-1 -56c-66,-6 -58,29 -57,-151l58 -1 0 -54 -58 -1 -1 -64 -66 1 -1 63 -31 3 1 52z"/>
  <path class="fil1" d="M5954 3482l30 1c15,98 -52,224 126,206l0 -54c-49,-5 -59,11 -58,-47 0,-31 -3,-76 0,-106l58 -1 -1 -53 -57 -2 0 -63 -67 1 -1 63 -30 1 0 54z"/>
  <path class="fil1" d="M5240 3690l63 0c4,-15 4,-332 0,-350l-64 0 1 350z"/>
  <polygon class="fil1" points="4151,3690 4217,3689 4217,3428 4193,3428 4151,3428 4151,3448 4151,3650 4151,3659 4151,3671 "/>
  <polygon class="fil1" points="4604,3690 4670,3690 4669,3428 4603,3429 "/>
  <path class="fil1" d="M4597 3365c7,47 88,40 80,-14 -7,-47 -89,-41 -80,14z"/>
  <path class="fil1" d="M4145 3365c7,46 87,41 80,-14 -7,-46 -89,-42 -80,14z"/>
  <text x="2229" y="5366"  class="fil2 fnt0">Digital Talent Schollarship - Kominfo</text>
  <text x="305" y="5783"  class="fil2 fnt0">Vocational School Graduate Academy - Junior Web Developer</text>
 </g>
</svg>
